<svg width="172" height="172" viewBox="0 0 172 172" fill="none" xmlns="http://www.w3.org/2000/svg">
<rect width="172" height="172" rx="12" fill="#F5CB5C"/>
<circle cx="88.7334" cy="87" r="36" stroke="white" stroke-width="8"/>
<circle cx="88.7334" cy="86" r="52" stroke="white" stroke-width="4"/>
<circle cx="88.7334" cy="86" r="67" stroke="white" stroke-width="2"/>
<path d="M27.4154 78V77.69L27.9734 77.473C28.3867 77.3077 28.6657 77.101 28.8104 76.853C28.9757 76.605 29.0584 76.2743 29.0584 75.861V59.679C29.0584 59.245 28.9757 58.904 28.8104 58.656C28.6657 58.408 28.3867 58.2117 27.9734 58.067L27.4154 57.85V57.54H36.3124C38.8337 57.54 40.6524 58.005 41.7684 58.935C42.8844 59.8443 43.4424 61.0017 43.4424 62.407C43.4424 63.461 43.0291 64.422 42.2024 65.29C41.3964 66.1373 40.0014 66.7367 38.0174 67.088C40.2907 67.336 41.9544 67.9353 43.0084 68.886C44.0624 69.816 44.5894 70.9527 44.5894 72.296C44.5894 72.9573 44.4447 73.629 44.1554 74.311C43.8661 74.9723 43.3701 75.582 42.6674 76.14C41.9854 76.698 41.0451 77.1527 39.8464 77.504C38.6477 77.8347 37.1287 78 35.2894 78H27.4154ZM33.6464 67.057H34.9794C36.3641 67.057 37.3561 66.7367 37.9554 66.096C38.5754 65.4553 38.8854 64.3393 38.8854 62.748C38.8854 61.0947 38.6064 59.9167 38.0484 59.214C37.4904 58.5113 36.5811 58.16 35.3204 58.16H33.6464V67.057ZM33.6464 77.38H35.1964C36.7464 77.38 37.8934 76.9667 38.6374 76.14C39.4021 75.3133 39.7844 74.0217 39.7844 72.265C39.7844 70.6117 39.4227 69.4337 38.6994 68.731C37.9761 68.0283 36.7877 67.677 35.1344 67.677H33.6464V77.38ZM53.8434 62.624C55.1867 62.624 56.3337 62.903 57.2844 63.461C58.2351 63.9983 58.9584 64.7423 59.4544 65.693C59.9711 66.623 60.2294 67.6873 60.2294 68.886C60.2294 69.1133 60.2191 69.351 60.1984 69.599C60.1777 69.8263 60.1364 70.033 60.0744 70.219H50.8364C50.857 72.451 51.2497 74.063 52.0144 75.055C52.7997 76.0263 53.957 76.512 55.4864 76.512C56.5197 76.512 57.3567 76.3467 57.9974 76.016C58.6381 75.6853 59.2374 75.1997 59.7954 74.559L60.1054 74.838C59.4647 75.9747 58.6071 76.8633 57.5324 77.504C56.4784 78.1447 55.2074 78.465 53.7194 78.465C52.252 78.465 50.95 78.155 49.8134 77.535C48.6767 76.8943 47.788 75.985 47.1474 74.807C46.5067 73.629 46.1864 72.2237 46.1864 70.591C46.1864 68.8963 46.5584 67.46 47.3024 66.282C48.0464 65.0833 48.997 64.174 50.1544 63.554C51.3324 62.934 52.562 62.624 53.8434 62.624ZM53.7504 63.244C53.151 63.244 52.6344 63.43 52.2004 63.802C51.787 64.1533 51.4564 64.794 51.2084 65.724C50.981 66.6333 50.857 67.925 50.8364 69.599H56.1374C56.3441 67.3463 56.2614 65.724 55.8894 64.732C55.5174 63.74 54.8044 63.244 53.7504 63.244ZM61.3829 78V77.69L61.7549 77.566C62.4989 77.318 62.8709 76.8013 62.8709 76.016V59.462C62.8709 59.028 62.7986 58.7077 62.6539 58.501C62.5093 58.2943 62.2303 58.1393 61.8169 58.036L61.3519 57.912V57.602L66.8079 56.269L67.3039 56.548L67.1799 60.919V64.794C67.9033 64.1947 68.6783 63.6883 69.5049 63.275C70.3523 62.841 71.2823 62.624 72.2949 62.624C73.6383 62.624 74.7026 63.0063 75.4879 63.771C76.2939 64.5357 76.6969 65.7137 76.6969 67.305V76.047C76.6969 76.4603 76.7796 76.791 76.9449 77.039C77.1103 77.287 77.3996 77.473 77.8129 77.597L78.0609 77.69V78H70.8069V77.69L71.1789 77.597C71.9229 77.349 72.2949 76.822 72.2949 76.016V66.282C72.2949 65.4553 72.1503 64.887 71.8609 64.577C71.5923 64.267 71.1066 64.112 70.4039 64.112C69.9493 64.112 69.4533 64.205 68.9159 64.391C68.3786 64.5563 67.8309 64.856 67.2729 65.29V76.078C67.2729 76.884 67.6449 77.4007 68.3889 77.628L68.6369 77.69V78H61.3829ZM83.6167 78.465C82.418 78.465 81.4054 78.124 80.5787 77.442C79.7727 76.76 79.3697 75.7783 79.3697 74.497C79.3697 73.5257 79.8657 72.637 80.8577 71.831C81.8497 71.0043 83.41 70.3843 85.5387 69.971C85.8694 69.909 86.2414 69.847 86.6547 69.785C87.068 69.7023 87.502 69.6197 87.9567 69.537V67.088C87.9567 65.6827 87.781 64.701 87.4297 64.143C87.099 63.5643 86.572 63.275 85.8487 63.275C85.3527 63.275 84.96 63.4403 84.6707 63.771C84.3814 64.081 84.1954 64.6287 84.1127 65.414L84.0507 65.755C84.0094 66.6437 83.7924 67.2947 83.3997 67.708C83.007 68.1213 82.5214 68.328 81.9427 68.328C81.4054 68.328 80.961 68.1627 80.6097 67.832C80.2584 67.5013 80.0827 67.057 80.0827 66.499C80.0827 65.6517 80.372 64.9387 80.9507 64.36C81.55 63.7813 82.3354 63.3473 83.3067 63.058C84.278 62.7687 85.332 62.624 86.4687 62.624C88.308 62.624 89.7237 63.0787 90.7157 63.988C91.7284 64.8767 92.2347 66.3337 92.2347 68.359V75.21C92.2347 76.14 92.6687 76.605 93.5367 76.605H94.2187L94.4977 76.853C94.105 77.349 93.671 77.7313 93.1957 78C92.741 78.2687 92.09 78.403 91.2427 78.403C90.3334 78.403 89.61 78.1963 89.0727 77.783C88.556 77.349 88.215 76.7807 88.0497 76.078C87.4297 76.7393 86.789 77.3077 86.1277 77.783C85.487 78.2377 84.65 78.465 83.6167 78.465ZM85.5077 76.574C85.921 76.574 86.3034 76.481 86.6547 76.295C87.0267 76.0883 87.4607 75.7783 87.9567 75.365V70.157C87.75 70.1983 87.5434 70.2397 87.3367 70.281C87.13 70.3223 86.8924 70.3637 86.6237 70.405C85.673 70.653 84.9084 71.0767 84.3297 71.676C83.7717 72.2547 83.4927 73.04 83.4927 74.032C83.4927 74.8793 83.689 75.52 84.0817 75.954C84.4744 76.3673 84.9497 76.574 85.5077 76.574ZM101.474 78.093L95.9872 64.918C95.6978 64.2153 95.2018 63.7503 94.4992 63.523L94.0652 63.399V63.089H102.094V63.399L101.536 63.523C100.73 63.7297 100.482 64.267 100.792 65.135L104.047 73.784L107.085 65.197C107.25 64.7837 107.292 64.4427 107.209 64.174C107.126 63.9053 106.878 63.709 106.465 63.585L105.69 63.399V63.089H110.185V63.399L109.286 63.616C108.893 63.7193 108.583 63.8743 108.356 64.081C108.149 64.2877 107.974 64.5977 107.829 65.011L103.272 78.093H101.474ZM114.689 61.012C113.986 61.012 113.387 60.795 112.891 60.361C112.415 59.9063 112.178 59.338 112.178 58.656C112.178 57.9533 112.415 57.385 112.891 56.951C113.387 56.517 113.986 56.3 114.689 56.3C115.391 56.3 115.98 56.517 116.456 56.951C116.931 57.385 117.169 57.9533 117.169 58.656C117.169 59.338 116.931 59.9063 116.456 60.361C115.98 60.795 115.391 61.012 114.689 61.012ZM111.031 78V77.69L111.465 77.566C111.878 77.442 112.157 77.256 112.302 77.008C112.467 76.76 112.55 76.4293 112.55 76.016V66.313C112.55 65.879 112.467 65.5587 112.302 65.352C112.157 65.1247 111.878 64.9697 111.465 64.887L111.031 64.794V64.484L116.704 62.655L117.014 62.965L116.921 67.367V76.047C116.921 76.4603 116.993 76.791 117.138 77.039C117.303 77.287 117.582 77.473 117.975 77.597L118.285 77.69V78H111.031ZM127.5 78.465C125.929 78.465 124.565 78.1447 123.408 77.504C122.251 76.8427 121.352 75.9127 120.711 74.714C120.091 73.5153 119.781 72.11 119.781 70.498C119.781 68.886 120.112 67.491 120.773 66.313C121.455 65.135 122.375 64.2257 123.532 63.585C124.71 62.9443 126.033 62.624 127.5 62.624C128.967 62.624 130.28 62.9443 131.437 63.585C132.594 64.205 133.504 65.104 134.165 66.282C134.847 67.46 135.188 68.8653 135.188 70.498C135.188 72.1307 134.868 73.5463 134.227 74.745C133.607 75.923 132.718 76.8427 131.561 77.504C130.424 78.1447 129.071 78.465 127.5 78.465ZM127.5 77.845C128.223 77.845 128.802 77.6383 129.236 77.225C129.67 76.8117 129.98 76.078 130.166 75.024C130.373 73.97 130.476 72.482 130.476 70.56C130.476 68.6173 130.373 67.119 130.166 66.065C129.98 65.011 129.67 64.2773 129.236 63.864C128.802 63.4507 128.223 63.244 127.5 63.244C126.777 63.244 126.188 63.4507 125.733 63.864C125.299 64.2773 124.979 65.011 124.772 66.065C124.586 67.119 124.493 68.6173 124.493 70.56C124.493 72.482 124.586 73.97 124.772 75.024C124.979 76.078 125.299 76.8117 125.733 77.225C126.188 77.6383 126.777 77.845 127.5 77.845ZM136.55 78V77.69L137.015 77.566C137.428 77.442 137.707 77.256 137.852 77.008C138.017 76.76 138.1 76.4397 138.1 76.047V66.344C138.1 65.8893 138.017 65.5587 137.852 65.352C137.707 65.1247 137.428 64.9697 137.015 64.887L136.55 64.763V64.453L141.882 62.655L142.192 62.965L142.471 65.631V65.879C142.76 65.3003 143.132 64.7733 143.587 64.298C144.062 63.802 144.579 63.399 145.137 63.089C145.715 62.779 146.284 62.624 146.842 62.624C147.627 62.624 148.226 62.841 148.64 63.275C149.053 63.709 149.26 64.2567 149.26 64.918C149.26 65.6207 149.053 66.1683 148.64 66.561C148.247 66.933 147.772 67.119 147.214 67.119C146.346 67.119 145.581 66.685 144.92 65.817L144.858 65.755C144.651 65.4657 144.413 65.3107 144.145 65.29C143.876 65.2487 143.628 65.3727 143.401 65.662C143.194 65.848 143.018 66.0753 142.874 66.344C142.75 66.592 142.626 66.8813 142.502 67.212V75.861C142.502 76.6877 142.863 77.2043 143.587 77.411L144.579 77.69V78H136.55ZM31.8794 115.465C30.6807 115.465 29.6681 115.124 28.8414 114.442C28.0354 113.76 27.6324 112.778 27.6324 111.497C27.6324 110.526 28.1284 109.637 29.1204 108.831C30.1124 108.004 31.6727 107.384 33.8014 106.971C34.1321 106.909 34.5041 106.847 34.9174 106.785C35.3307 106.702 35.7647 106.62 36.2194 106.537V104.088C36.2194 102.683 36.0437 101.701 35.6924 101.143C35.3617 100.564 34.8347 100.275 34.1114 100.275C33.6154 100.275 33.2227 100.44 32.9334 100.771C32.6441 101.081 32.4581 101.629 32.3754 102.414L32.3134 102.755C32.2721 103.644 32.0551 104.295 31.6624 104.708C31.2697 105.121 30.7841 105.328 30.2054 105.328C29.6681 105.328 29.2237 105.163 28.8724 104.832C28.5211 104.501 28.3454 104.057 28.3454 103.499C28.3454 102.652 28.6347 101.939 29.2134 101.36C29.8127 100.781 30.5981 100.347 31.5694 100.058C32.5407 99.7687 33.5947 99.624 34.7314 99.624C36.5707 99.624 37.9864 100.079 38.9784 100.988C39.9911 101.877 40.4974 103.334 40.4974 105.359V112.21C40.4974 113.14 40.9314 113.605 41.7994 113.605H42.4814L42.7604 113.853C42.3677 114.349 41.9337 114.731 41.4584 115C41.0037 115.269 40.3527 115.403 39.5054 115.403C38.5961 115.403 37.8727 115.196 37.3354 114.783C36.8187 114.349 36.4777 113.781 36.3124 113.078C35.6924 113.739 35.0517 114.308 34.3904 114.783C33.7497 115.238 32.9127 115.465 31.8794 115.465ZM33.7704 113.574C34.1837 113.574 34.5661 113.481 34.9174 113.295C35.2894 113.088 35.7234 112.778 36.2194 112.365V107.157C36.0127 107.198 35.8061 107.24 35.5994 107.281C35.3927 107.322 35.1551 107.364 34.8864 107.405C33.9357 107.653 33.1711 108.077 32.5924 108.676C32.0344 109.255 31.7554 110.04 31.7554 111.032C31.7554 111.879 31.9517 112.52 32.3444 112.954C32.7371 113.367 33.2124 113.574 33.7704 113.574ZM43.3378 115V114.69L43.7718 114.566C44.4951 114.359 44.8568 113.853 44.8568 113.047V103.344C44.8568 102.889 44.7844 102.559 44.6398 102.352C44.4951 102.125 44.2161 101.97 43.8028 101.887L43.3378 101.763V101.453L48.6388 99.655L48.9488 99.965L49.1968 101.825C49.9201 101.184 50.7364 100.657 51.6458 100.244C52.5551 99.8307 53.4541 99.624 54.3428 99.624C55.7068 99.624 56.7504 99.996 57.4738 100.74C58.2178 101.484 58.5898 102.621 58.5898 104.15V113.078C58.5898 113.884 58.9824 114.39 59.7678 114.597L60.0468 114.69V115H52.7308V114.69L53.1338 114.566C53.8571 114.339 54.2188 113.832 54.2188 113.047V103.158C54.2188 101.835 53.5574 101.174 52.2348 101.174C51.3254 101.174 50.3334 101.629 49.2588 102.538V113.078C49.2588 113.884 49.6204 114.39 50.3438 114.597L50.6228 114.69V115H43.3378ZM65.604 115.465C64.4053 115.465 63.3927 115.124 62.566 114.442C61.76 113.76 61.357 112.778 61.357 111.497C61.357 110.526 61.853 109.637 62.845 108.831C63.837 108.004 65.3973 107.384 67.526 106.971C67.8567 106.909 68.2287 106.847 68.642 106.785C69.0553 106.702 69.4893 106.62 69.944 106.537V104.088C69.944 102.683 69.7683 101.701 69.417 101.143C69.0863 100.564 68.5593 100.275 67.836 100.275C67.34 100.275 66.9473 100.44 66.658 100.771C66.3687 101.081 66.1827 101.629 66.1 102.414L66.038 102.755C65.9967 103.644 65.7797 104.295 65.387 104.708C64.9943 105.121 64.5087 105.328 63.93 105.328C63.3927 105.328 62.9483 105.163 62.597 104.832C62.2457 104.501 62.07 104.057 62.07 103.499C62.07 102.652 62.3593 101.939 62.938 101.36C63.5373 100.781 64.3227 100.347 65.294 100.058C66.2653 99.7687 67.3193 99.624 68.456 99.624C70.2953 99.624 71.711 100.079 72.703 100.988C73.7157 101.877 74.222 103.334 74.222 105.359V112.21C74.222 113.14 74.656 113.605 75.524 113.605H76.206L76.485 113.853C76.0923 114.349 75.6583 114.731 75.183 115C74.7283 115.269 74.0773 115.403 73.23 115.403C72.3207 115.403 71.5973 115.196 71.06 114.783C70.5433 114.349 70.2023 113.781 70.037 113.078C69.417 113.739 68.7763 114.308 68.115 114.783C67.4743 115.238 66.6373 115.465 65.604 115.465ZM67.495 113.574C67.9083 113.574 68.2907 113.481 68.642 113.295C69.014 113.088 69.448 112.778 69.944 112.365V107.157C69.7373 107.198 69.5307 107.24 69.324 107.281C69.1173 107.322 68.8797 107.364 68.611 107.405C67.6603 107.653 66.8957 108.077 66.317 108.676C65.759 109.255 65.48 110.04 65.48 111.032C65.48 111.879 65.6763 112.52 66.069 112.954C66.4617 113.367 66.937 113.574 67.495 113.574ZM77.2159 115V114.69L77.5879 114.566C78.3319 114.318 78.7039 113.801 78.7039 113.016V96.431C78.7039 96.0177 78.6213 95.7077 78.4559 95.501C78.2906 95.2737 78.0013 95.1083 77.5879 95.005L77.1849 94.912V94.602L82.8579 93.269L83.2299 93.548L83.1059 97.888V108.49C83.1059 109.255 83.1059 110.019 83.1059 110.784C83.1266 111.528 83.1369 112.272 83.1369 113.016C83.1369 113.429 83.2196 113.77 83.3849 114.039C83.5503 114.287 83.8293 114.473 84.2219 114.597L84.6249 114.69V115H77.2159ZM88.5423 122.44C87.7156 122.44 87.0543 122.233 86.5583 121.82C86.083 121.407 85.8453 120.88 85.8453 120.239C85.8453 119.66 86.052 119.195 86.4653 118.844C86.8786 118.493 87.3436 118.317 87.8603 118.317C88.377 118.317 88.811 118.42 89.1623 118.627C89.5136 118.854 89.8236 119.175 90.0923 119.588L90.3093 119.836C90.764 120.456 91.2186 120.446 91.6733 119.805C91.8593 119.495 92.066 119.082 92.2933 118.565C92.5413 118.069 92.8203 117.397 93.1303 116.55L87.1163 102.166C86.9716 101.773 86.8166 101.463 86.6513 101.236C86.486 100.988 86.2173 100.781 85.8453 100.616L85.2873 100.399V100.089H93.0063V100.368L92.3863 100.616C91.9316 100.761 91.694 100.998 91.6733 101.329C91.6733 101.639 91.756 102.032 91.9213 102.507L95.1453 110.877L98.2143 102.414C98.3796 101.939 98.4416 101.546 98.4003 101.236C98.359 100.905 98.1006 100.678 97.6253 100.554L96.9743 100.399V100.089H101.283V100.399L100.601 100.616C100.126 100.761 99.7953 100.967 99.6093 101.236C99.4233 101.505 99.2476 101.877 99.0823 102.352L94.0913 115.961C93.2853 118.131 92.4793 119.753 91.6733 120.828C90.8673 121.903 89.8236 122.44 88.5423 122.44ZM107.189 115.465C106.176 115.465 105.267 115.341 104.461 115.093C103.655 114.866 102.911 114.576 102.229 114.225L102.26 110.536H102.57L103.624 112.396C104.079 113.223 104.575 113.843 105.112 114.256C105.67 114.649 106.373 114.845 107.22 114.845C108.212 114.845 109.008 114.628 109.607 114.194C110.227 113.739 110.537 113.14 110.537 112.396C110.537 111.714 110.32 111.156 109.886 110.722C109.452 110.288 108.646 109.895 107.468 109.544L106.166 109.141C104.905 108.769 103.913 108.19 103.19 107.405C102.467 106.62 102.105 105.659 102.105 104.522C102.105 103.158 102.642 102.001 103.717 101.05C104.792 100.099 106.331 99.624 108.336 99.624C109.142 99.624 109.896 99.717 110.599 99.903C111.322 100.068 112.015 100.327 112.676 100.678L112.49 104.026H112.18L111.095 102.104C110.702 101.422 110.31 100.947 109.917 100.678C109.545 100.389 108.977 100.244 108.212 100.244C107.509 100.244 106.848 100.44 106.228 100.833C105.608 101.226 105.298 101.784 105.298 102.507C105.298 103.21 105.556 103.768 106.073 104.181C106.61 104.594 107.396 104.977 108.429 105.328L109.824 105.731C111.312 106.186 112.376 106.816 113.017 107.622C113.658 108.407 113.978 109.358 113.978 110.474C113.978 111.983 113.379 113.192 112.18 114.101C111.002 115.01 109.338 115.465 107.189 115.465ZM118.957 98.012C118.255 98.012 117.655 97.795 117.159 97.361C116.684 96.9063 116.446 96.338 116.446 95.656C116.446 94.9533 116.684 94.385 117.159 93.951C117.655 93.517 118.255 93.3 118.957 93.3C119.66 93.3 120.249 93.517 120.724 93.951C121.2 94.385 121.437 94.9533 121.437 95.656C121.437 96.338 121.2 96.9063 120.724 97.361C120.249 97.795 119.66 98.012 118.957 98.012ZM115.299 115V114.69L115.733 114.566C116.147 114.442 116.426 114.256 116.57 114.008C116.736 113.76 116.818 113.429 116.818 113.016V103.313C116.818 102.879 116.736 102.559 116.57 102.352C116.426 102.125 116.147 101.97 115.733 101.887L115.299 101.794V101.484L120.972 99.655L121.282 99.965L121.189 104.367V113.047C121.189 113.46 121.262 113.791 121.406 114.039C121.572 114.287 121.851 114.473 122.243 114.597L122.553 114.69V115H115.299ZM129.289 115.465C128.276 115.465 127.367 115.341 126.561 115.093C125.755 114.866 125.011 114.576 124.329 114.225L124.36 110.536H124.67L125.724 112.396C126.178 113.223 126.674 113.843 127.212 114.256C127.77 114.649 128.472 114.845 129.32 114.845C130.312 114.845 131.107 114.628 131.707 114.194C132.327 113.739 132.637 113.14 132.637 112.396C132.637 111.714 132.42 111.156 131.986 110.722C131.552 110.288 130.746 109.895 129.568 109.544L128.266 109.141C127.005 108.769 126.013 108.19 125.29 107.405C124.566 106.62 124.205 105.659 124.205 104.522C124.205 103.158 124.742 102.001 125.817 101.05C126.891 100.099 128.431 99.624 130.436 99.624C131.242 99.624 131.996 99.717 132.699 99.903C133.422 100.068 134.114 100.327 134.776 100.678L134.59 104.026H134.28L133.195 102.104C132.802 101.422 132.409 100.947 132.017 100.678C131.645 100.389 131.076 100.244 130.312 100.244C129.609 100.244 128.948 100.44 128.328 100.833C127.708 101.226 127.398 101.784 127.398 102.507C127.398 103.21 127.656 103.768 128.173 104.181C128.71 104.594 129.495 104.977 130.529 105.328L131.924 105.731C133.412 106.186 134.476 106.816 135.117 107.622C135.757 108.407 136.078 109.358 136.078 110.474C136.078 111.983 135.478 113.192 134.28 114.101C133.102 115.01 131.438 115.465 129.289 115.465Z" fill="#333533"/>
<path d="M146.522 25.1143C146.563 25.4383 146.637 25.3472 146.874 25.4659" stroke="white" stroke-width="5" stroke-linecap="round"/>
<path d="M144.412 145.031H144.764" stroke="white" stroke-width="5" stroke-linecap="round"/>
<path d="M21.6818 135.185C20.909 135.088 21.7938 134.482 22.2093 134.482C22.8953 134.482 22.8953 135.185 22.2093 135.185C20.0604 135.185 22.3238 133.44 22.3851 134.482C22.4176 135.033 22.3834 138.284 21.1739 136.729C19.4417 134.501 22.7591 134.13 23.9872 134.13C26.8086 134.13 25.4403 138.511 23.6355 138.975C21.6509 139.486 19.4825 135.626 21.1543 134.325C21.8633 133.774 23.8192 134.079 24.6905 134.13C25.6998 134.189 24.2775 136.664 23.8309 137.022C20.8616 139.397 20.203 135.65 22.7368 134.13" stroke="white" stroke-width="5" stroke-linecap="round"/>
<path d="M15 21.5977V21.9493" stroke="white" stroke-width="5" stroke-linecap="round"/>
<path d="M71.6182 83.8418H71.9698" stroke="white" stroke-width="5" stroke-linecap="round"/>
<path d="M111.708 88.4136V89.1169" stroke="white" stroke-width="5" stroke-linecap="round"/>
<path d="M155.666 55.3574H156.369" stroke="white" stroke-width="8" stroke-linecap="round"/>
</svg>
