<svg width="172" height="172" viewBox="0 0 172 172" fill="none" xmlns="http://www.w3.org/2000/svg">
<g clip-path="url(#clip0_272_19)">
<rect width="172" height="172" rx="12" fill="#E8EDDF"/>
<path d="M0 22.4121L52.1639 0L0 89.1273L127.355 0L58.2732 172L172 104.764L156.492 172L0 145.418L172 0" stroke="white" stroke-width="6"/>
<path d="M33.804 78.093L27.17 59.617C27.0253 59.2037 26.829 58.8833 26.581 58.656C26.3537 58.408 26.0333 58.222 25.62 58.098L24.876 57.85V57.54H33.804V57.85L32.843 58.129C32.3677 58.253 32.099 58.47 32.037 58.78C31.9957 59.09 32.0473 59.4723 32.192 59.927L36.78 73.536L41.399 59.896C41.5643 59.4207 41.6367 59.028 41.616 58.718C41.616 58.408 41.3783 58.191 40.903 58.067L40.097 57.85V57.54H44.437V57.85L43.6 58.098C43.2073 58.2013 42.9283 58.3873 42.763 58.656C42.5977 58.904 42.4427 59.2347 42.298 59.648L36.098 78.093H33.804ZM50.2028 62.624C51.5461 62.624 52.6931 62.903 53.6438 63.461C54.5944 63.9983 55.3178 64.7423 55.8138 65.693C56.3304 66.623 56.5888 67.6873 56.5888 68.886C56.5888 69.1133 56.5784 69.351 56.5578 69.599C56.5371 69.8263 56.4958 70.033 56.4338 70.219H47.1958C47.2164 72.451 47.6091 74.063 48.3738 75.055C49.1591 76.0263 50.3164 76.512 51.8458 76.512C52.8791 76.512 53.7161 76.3467 54.3568 76.016C54.9974 75.6853 55.5968 75.1997 56.1548 74.559L56.4648 74.838C55.8241 75.9747 54.9664 76.8633 53.8918 77.504C52.8378 78.1447 51.5668 78.465 50.0788 78.465C48.6114 78.465 47.3094 78.155 46.1728 77.535C45.0361 76.8943 44.1474 75.985 43.5068 74.807C42.8661 73.629 42.5458 72.2237 42.5458 70.591C42.5458 68.8963 42.9178 67.46 43.6618 66.282C44.4058 65.0833 45.3564 64.174 46.5138 63.554C47.6918 62.934 48.9214 62.624 50.2028 62.624ZM50.1098 63.244C49.5104 63.244 48.9938 63.43 48.5598 63.802C48.1464 64.1533 47.8158 64.794 47.5678 65.724C47.3404 66.6333 47.2164 67.925 47.1958 69.599H52.4968C52.7034 67.3463 52.6208 65.724 52.2488 64.732C51.8768 63.74 51.1638 63.244 50.1098 63.244ZM58.1337 78V77.69L58.5987 77.566C59.012 77.442 59.291 77.256 59.4357 77.008C59.601 76.76 59.6837 76.4397 59.6837 76.047V66.344C59.6837 65.8893 59.601 65.5587 59.4357 65.352C59.291 65.1247 59.012 64.9697 58.5987 64.887L58.1337 64.763V64.453L63.4657 62.655L63.7757 62.965L64.0547 65.631V65.879C64.344 65.3003 64.716 64.7733 65.1707 64.298C65.646 63.802 66.1627 63.399 66.7207 63.089C67.2993 62.779 67.8677 62.624 68.4257 62.624C69.211 62.624 69.8103 62.841 70.2237 63.275C70.637 63.709 70.8437 64.2567 70.8437 64.918C70.8437 65.6207 70.637 66.1683 70.2237 66.561C69.831 66.933 69.3557 67.119 68.7977 67.119C67.9297 67.119 67.165 66.685 66.5037 65.817L66.4417 65.755C66.235 65.4657 65.9973 65.3107 65.7287 65.29C65.46 65.2487 65.212 65.3727 64.9847 65.662C64.778 65.848 64.6023 66.0753 64.4577 66.344C64.3337 66.592 64.2097 66.8813 64.0857 67.212V75.861C64.0857 76.6877 64.4473 77.2043 65.1707 77.411L66.1627 77.69V78H58.1337ZM76.4523 78.403L71.2133 78V77.69L71.5233 77.628C72.3293 77.442 72.7323 76.9253 72.7323 76.078V59.493C72.7323 59.059 72.6599 58.7283 72.5153 58.501C72.3913 58.2737 72.1226 58.1187 71.7093 58.036L71.2753 57.912V57.602L76.7933 56.269L77.1653 56.548L77.0413 60.919V64.05C77.7233 63.5747 78.4673 63.2233 79.2733 62.996C80.0793 62.748 80.8956 62.624 81.7223 62.624C82.9003 62.624 83.9439 62.903 84.8533 63.461C85.7626 63.9983 86.4756 64.8457 86.9923 66.003C87.5296 67.1397 87.7983 68.607 87.7983 70.405C87.7983 72.203 87.4986 73.7013 86.8992 74.9C86.3206 76.078 85.5353 76.9667 84.5433 77.566C83.5719 78.1653 82.4973 78.465 81.3193 78.465C80.5546 78.465 79.7796 78.3617 78.9943 78.155C78.2296 77.9483 77.5476 77.659 76.9483 77.287L76.4523 78.403ZM79.7693 77.411C80.4306 77.411 81.0093 77.2043 81.5053 76.791C82.0013 76.3777 82.3939 75.675 82.6833 74.683C82.9726 73.6703 83.1173 72.2857 83.1173 70.529C83.1173 68.7723 82.9829 67.4187 82.7143 66.468C82.4456 65.5173 82.0633 64.856 81.5673 64.484C81.0919 64.112 80.5133 63.926 79.8313 63.926C78.8599 63.926 77.9609 64.1947 77.1343 64.732V76.636C77.5269 76.884 77.9299 77.0803 78.3433 77.225C78.7566 77.349 79.2319 77.411 79.7693 77.411ZM93.5083 78.465C92.3096 78.465 91.297 78.124 90.4703 77.442C89.6643 76.76 89.2613 75.7783 89.2613 74.497C89.2613 73.5257 89.7573 72.637 90.7493 71.831C91.7413 71.0043 93.3016 70.3843 95.4303 69.971C95.761 69.909 96.133 69.847 96.5463 69.785C96.9596 69.7023 97.3936 69.6197 97.8483 69.537V67.088C97.8483 65.6827 97.6726 64.701 97.3213 64.143C96.9906 63.5643 96.4636 63.275 95.7403 63.275C95.2443 63.275 94.8516 63.4403 94.5623 63.771C94.273 64.081 94.087 64.6287 94.0043 65.414L93.9423 65.755C93.901 66.6437 93.684 67.2947 93.2913 67.708C92.8986 68.1213 92.413 68.328 91.8343 68.328C91.297 68.328 90.8526 68.1627 90.5013 67.832C90.15 67.5013 89.9743 67.057 89.9743 66.499C89.9743 65.6517 90.2636 64.9387 90.8423 64.36C91.4416 63.7813 92.227 63.3473 93.1983 63.058C94.1696 62.7687 95.2236 62.624 96.3603 62.624C98.1996 62.624 99.6153 63.0787 100.607 63.988C101.62 64.8767 102.126 66.3337 102.126 68.359V75.21C102.126 76.14 102.56 76.605 103.428 76.605H104.11L104.389 76.853C103.997 77.349 103.563 77.7313 103.087 78C102.633 78.2687 101.982 78.403 101.134 78.403C100.225 78.403 99.5016 78.1963 98.9643 77.783C98.4476 77.349 98.1066 76.7807 97.9413 76.078C97.3213 76.7393 96.6806 77.3077 96.0193 77.783C95.3786 78.2377 94.5416 78.465 93.5083 78.465ZM95.3993 76.574C95.8126 76.574 96.195 76.481 96.5463 76.295C96.9183 76.0883 97.3523 75.7783 97.8483 75.365V70.157C97.6416 70.1983 97.435 70.2397 97.2283 70.281C97.0216 70.3223 96.784 70.3637 96.5153 70.405C95.5646 70.653 94.8 71.0767 94.2213 71.676C93.6633 72.2547 93.3843 73.04 93.3843 74.032C93.3843 74.8793 93.5806 75.52 93.9733 75.954C94.366 76.3673 94.8413 76.574 95.3993 76.574ZM105.12 78V77.69L105.492 77.566C106.236 77.318 106.608 76.8013 106.608 76.016V59.431C106.608 59.0177 106.526 58.7077 106.36 58.501C106.195 58.2737 105.906 58.1083 105.492 58.005L105.089 57.912V57.602L110.762 56.269L111.134 56.548L111.01 60.888V71.49C111.01 72.2547 111.01 73.0193 111.01 73.784C111.031 74.528 111.041 75.272 111.041 76.016C111.041 76.4293 111.124 76.7703 111.289 77.039C111.455 77.287 111.734 77.473 112.126 77.597L112.529 77.69V78H105.12ZM30.146 115.465C28.9473 115.465 27.9347 115.124 27.108 114.442C26.302 113.76 25.899 112.778 25.899 111.497C25.899 110.526 26.395 109.637 27.387 108.831C28.379 108.004 29.9393 107.384 32.068 106.971C32.3987 106.909 32.7707 106.847 33.184 106.785C33.5973 106.702 34.0313 106.62 34.486 106.537V104.088C34.486 102.683 34.3103 101.701 33.959 101.143C33.6283 100.564 33.1013 100.275 32.378 100.275C31.882 100.275 31.4893 100.44 31.2 100.771C30.9107 101.081 30.7247 101.629 30.642 102.414L30.58 102.755C30.5387 103.644 30.3217 104.295 29.929 104.708C29.5363 105.121 29.0507 105.328 28.472 105.328C27.9347 105.328 27.4903 105.163 27.139 104.832C26.7877 104.501 26.612 104.057 26.612 103.499C26.612 102.652 26.9013 101.939 27.48 101.36C28.0793 100.781 28.8647 100.347 29.836 100.058C30.8073 99.7687 31.8613 99.624 32.998 99.624C34.8373 99.624 36.253 100.079 37.245 100.988C38.2577 101.877 38.764 103.334 38.764 105.359V112.21C38.764 113.14 39.198 113.605 40.066 113.605H40.748L41.027 113.853C40.6343 114.349 40.2003 114.731 39.725 115C39.2703 115.269 38.6193 115.403 37.772 115.403C36.8627 115.403 36.1393 115.196 35.602 114.783C35.0853 114.349 34.7443 113.781 34.579 113.078C33.959 113.739 33.3183 114.308 32.657 114.783C32.0163 115.238 31.1793 115.465 30.146 115.465ZM32.037 113.574C32.4503 113.574 32.8327 113.481 33.184 113.295C33.556 113.088 33.99 112.778 34.486 112.365V107.157C34.2793 107.198 34.0727 107.24 33.866 107.281C33.6593 107.322 33.4217 107.364 33.153 107.405C32.2023 107.653 31.4377 108.077 30.859 108.676C30.301 109.255 30.022 110.04 30.022 111.032C30.022 111.879 30.2183 112.52 30.611 112.954C31.0037 113.367 31.479 113.574 32.037 113.574ZM41.6044 115V114.69L42.0384 114.566C42.7617 114.359 43.1234 113.853 43.1234 113.047V103.344C43.1234 102.889 43.051 102.559 42.9064 102.352C42.7617 102.125 42.4827 101.97 42.0694 101.887L41.6044 101.763V101.453L46.9054 99.655L47.2154 99.965L47.4634 101.825C48.1867 101.184 49.003 100.657 49.9124 100.244C50.8217 99.8307 51.7207 99.624 52.6094 99.624C53.9734 99.624 55.017 99.996 55.7404 100.74C56.4844 101.484 56.8564 102.621 56.8564 104.15V113.078C56.8564 113.884 57.249 114.39 58.0344 114.597L58.3134 114.69V115H50.9974V114.69L51.4004 114.566C52.1237 114.339 52.4854 113.832 52.4854 113.047V103.158C52.4854 101.835 51.824 101.174 50.5014 101.174C49.592 101.174 48.6 101.629 47.5254 102.538V113.078C47.5254 113.884 47.887 114.39 48.6104 114.597L48.8894 114.69V115H41.6044ZM63.8706 115.465C62.6719 115.465 61.6593 115.124 60.8326 114.442C60.0266 113.76 59.6236 112.778 59.6236 111.497C59.6236 110.526 60.1196 109.637 61.1116 108.831C62.1036 108.004 63.6639 107.384 65.7926 106.971C66.1233 106.909 66.4953 106.847 66.9086 106.785C67.3219 106.702 67.7559 106.62 68.2106 106.537V104.088C68.2106 102.683 68.0349 101.701 67.6836 101.143C67.3529 100.564 66.8259 100.275 66.1026 100.275C65.6066 100.275 65.2139 100.44 64.9246 100.771C64.6353 101.081 64.4493 101.629 64.3666 102.414L64.3046 102.755C64.2633 103.644 64.0463 104.295 63.6536 104.708C63.2609 105.121 62.7753 105.328 62.1966 105.328C61.6593 105.328 61.2149 105.163 60.8636 104.832C60.5123 104.501 60.3366 104.057 60.3366 103.499C60.3366 102.652 60.6259 101.939 61.2046 101.36C61.8039 100.781 62.5893 100.347 63.5606 100.058C64.5319 99.7687 65.5859 99.624 66.7226 99.624C68.5619 99.624 69.9776 100.079 70.9696 100.988C71.9823 101.877 72.4886 103.334 72.4886 105.359V112.21C72.4886 113.14 72.9226 113.605 73.7906 113.605H74.4726L74.7516 113.853C74.3589 114.349 73.9249 114.731 73.4496 115C72.9949 115.269 72.3439 115.403 71.4966 115.403C70.5873 115.403 69.8639 115.196 69.3266 114.783C68.8099 114.349 68.4689 113.781 68.3036 113.078C67.6836 113.739 67.0429 114.308 66.3816 114.783C65.7409 115.238 64.9039 115.465 63.8706 115.465ZM65.7616 113.574C66.1749 113.574 66.5573 113.481 66.9086 113.295C67.2806 113.088 67.7146 112.778 68.2106 112.365V107.157C68.0039 107.198 67.7973 107.24 67.5906 107.281C67.3839 107.322 67.1463 107.364 66.8776 107.405C65.9269 107.653 65.1623 108.077 64.5836 108.676C64.0256 109.255 63.7466 110.04 63.7466 111.032C63.7466 111.879 63.9429 112.52 64.3356 112.954C64.7283 113.367 65.2036 113.574 65.7616 113.574ZM75.4825 115V114.69L75.8545 114.566C76.5985 114.318 76.9705 113.801 76.9705 113.016V96.431C76.9705 96.0177 76.8879 95.7077 76.7225 95.501C76.5572 95.2737 76.2679 95.1083 75.8545 95.005L75.4515 94.912V94.602L81.1245 93.269L81.4965 93.548L81.3725 97.888V108.49C81.3725 109.255 81.3725 110.019 81.3725 110.784C81.3932 111.528 81.4035 112.272 81.4035 113.016C81.4035 113.429 81.4862 113.77 81.6515 114.039C81.8169 114.287 82.0959 114.473 82.4885 114.597L82.8915 114.69V115H75.4825ZM86.8089 122.44C85.9822 122.44 85.3209 122.233 84.8249 121.82C84.3496 121.407 84.1119 120.88 84.1119 120.239C84.1119 119.66 84.3186 119.195 84.7319 118.844C85.1452 118.493 85.6102 118.317 86.1269 118.317C86.6436 118.317 87.0776 118.42 87.4289 118.627C87.7802 118.854 88.0902 119.175 88.3589 119.588L88.5759 119.836C89.0306 120.456 89.4852 120.446 89.9399 119.805C90.1259 119.495 90.3326 119.082 90.5599 118.565C90.8079 118.069 91.0869 117.397 91.3969 116.55L85.3829 102.166C85.2382 101.773 85.0832 101.463 84.9179 101.236C84.7526 100.988 84.4839 100.781 84.1119 100.616L83.5539 100.399V100.089H91.2729V100.368L90.6529 100.616C90.1982 100.761 89.9606 100.998 89.9399 101.329C89.9399 101.639 90.0226 102.032 90.1879 102.507L93.4119 110.877L96.4809 102.414C96.6462 101.939 96.7082 101.546 96.6669 101.236C96.6256 100.905 96.3672 100.678 95.8919 100.554L95.2409 100.399V100.089H99.5499V100.399L98.8679 100.616C98.3926 100.761 98.0619 100.967 97.8759 101.236C97.6899 101.505 97.5142 101.877 97.3489 102.352L92.3579 115.961C91.5519 118.131 90.7459 119.753 89.9399 120.828C89.1339 121.903 88.0902 122.44 86.8089 122.44ZM105.456 115.465C104.443 115.465 103.534 115.341 102.728 115.093C101.922 114.866 101.178 114.576 100.496 114.225L100.527 110.536H100.837L101.891 112.396C102.345 113.223 102.841 113.843 103.379 114.256C103.937 114.649 104.639 114.845 105.487 114.845C106.479 114.845 107.274 114.628 107.874 114.194C108.494 113.739 108.804 113.14 108.804 112.396C108.804 111.714 108.587 111.156 108.153 110.722C107.719 110.288 106.913 109.895 105.735 109.544L104.433 109.141C103.172 108.769 102.18 108.19 101.457 107.405C100.733 106.62 100.372 105.659 100.372 104.522C100.372 103.158 100.909 102.001 101.984 101.05C103.058 100.099 104.598 99.624 106.603 99.624C107.409 99.624 108.163 99.717 108.866 99.903C109.589 100.068 110.281 100.327 110.943 100.678L110.757 104.026H110.447L109.362 102.104C108.969 101.422 108.576 100.947 108.184 100.678C107.812 100.389 107.243 100.244 106.479 100.244C105.776 100.244 105.115 100.44 104.495 100.833C103.875 101.226 103.565 101.784 103.565 102.507C103.565 103.21 103.823 103.768 104.34 104.181C104.877 104.594 105.662 104.977 106.696 105.328L108.091 105.731C109.579 106.186 110.643 106.816 111.284 107.622C111.924 108.407 112.245 109.358 112.245 110.474C112.245 111.983 111.645 113.192 110.447 114.101C109.269 115.01 107.605 115.465 105.456 115.465ZM117.224 98.012C116.521 98.012 115.922 97.795 115.426 97.361C114.95 96.9063 114.713 96.338 114.713 95.656C114.713 94.9533 114.95 94.385 115.426 93.951C115.922 93.517 116.521 93.3 117.224 93.3C117.926 93.3 118.515 93.517 118.991 93.951C119.466 94.385 119.704 94.9533 119.704 95.656C119.704 96.338 119.466 96.9063 118.991 97.361C118.515 97.795 117.926 98.012 117.224 98.012ZM113.566 115V114.69L114 114.566C114.413 114.442 114.692 114.256 114.837 114.008C115.002 113.76 115.085 113.429 115.085 113.016V103.313C115.085 102.879 115.002 102.559 114.837 102.352C114.692 102.125 114.413 101.97 114 101.887L113.566 101.794V101.484L119.239 99.655L119.549 99.965L119.456 104.367V113.047C119.456 113.46 119.528 113.791 119.673 114.039C119.838 114.287 120.117 114.473 120.51 114.597L120.82 114.69V115H113.566ZM127.555 115.465C126.543 115.465 125.633 115.341 124.827 115.093C124.021 114.866 123.277 114.576 122.595 114.225L122.626 110.536H122.936L123.99 112.396C124.445 113.223 124.941 113.843 125.478 114.256C126.036 114.649 126.739 114.845 127.586 114.845C128.578 114.845 129.374 114.628 129.973 114.194C130.593 113.739 130.903 113.14 130.903 112.396C130.903 111.714 130.686 111.156 130.252 110.722C129.818 110.288 129.012 109.895 127.834 109.544L126.532 109.141C125.272 108.769 124.28 108.19 123.556 107.405C122.833 106.62 122.471 105.659 122.471 104.522C122.471 103.158 123.009 102.001 124.083 101.05C125.158 100.099 126.698 99.624 128.702 99.624C129.508 99.624 130.263 99.717 130.965 99.903C131.689 100.068 132.381 100.327 133.042 100.678L132.856 104.026H132.546L131.461 102.104C131.069 101.422 130.676 100.947 130.283 100.678C129.911 100.389 129.343 100.244 128.578 100.244C127.876 100.244 127.214 100.44 126.594 100.833C125.974 101.226 125.664 101.784 125.664 102.507C125.664 103.21 125.923 103.768 126.439 104.181C126.977 104.594 127.762 104.977 128.795 105.328L130.19 105.731C131.678 106.186 132.743 106.816 133.383 107.622C134.024 108.407 134.344 109.358 134.344 110.474C134.344 111.983 133.745 113.192 132.546 114.101C131.368 115.01 129.705 115.465 127.555 115.465Z" fill="#333533"/>
</g>
<defs>
<clipPath id="clip0_272_19">
<rect width="172" height="172" rx="12" fill="white"/>
</clipPath>
</defs>
</svg>
