<svg width="344" height="172" viewBox="0 0 344 172" fill="none" xmlns="http://www.w3.org/2000/svg">
<rect width="344" height="172" rx="12" fill="#F5CB5C"/>
<path d="M100.002 66.397V66.157L100.482 65.965C100.802 65.853 101.01 65.701 101.106 65.509C101.218 65.317 101.274 65.061 101.274 64.741V52.213C101.274 51.893 101.226 51.637 101.13 51.445C101.034 51.253 100.818 51.101 100.482 50.989L100.002 50.797V50.557H106.17V50.797L105.69 50.989C105.37 51.101 105.154 51.253 105.042 51.445C104.946 51.637 104.898 51.893 104.898 52.213V64.741C104.898 65.061 104.946 65.317 105.042 65.509C105.154 65.685 105.37 65.837 105.69 65.965L106.17 66.157V66.397H100.002ZM107.172 66.397V66.157L107.508 66.061C107.812 65.981 108.02 65.845 108.132 65.653C108.26 65.461 108.332 65.205 108.348 64.885V57.373C108.348 57.021 108.292 56.765 108.18 56.605C108.068 56.429 107.852 56.309 107.532 56.245L107.172 56.149V55.909L111.276 54.517L111.516 54.757L111.708 56.389C112.236 55.861 112.836 55.413 113.508 55.045C114.196 54.677 114.908 54.493 115.644 54.493C116.412 54.493 117.028 54.653 117.492 54.973C117.956 55.277 118.308 55.757 118.548 56.413C119.172 55.821 119.844 55.357 120.564 55.021C121.3 54.669 122.012 54.493 122.7 54.493C123.836 54.493 124.668 54.765 125.196 55.309C125.74 55.853 126.012 56.709 126.012 57.877V64.909C126.012 65.533 126.3 65.925 126.876 66.085L127.14 66.157V66.397H121.596V66.157L121.836 66.085C122.14 65.989 122.348 65.845 122.46 65.653C122.588 65.461 122.652 65.205 122.652 64.885V57.541C122.652 56.869 122.532 56.413 122.292 56.173C122.052 55.917 121.668 55.789 121.14 55.789C120.724 55.789 120.316 55.885 119.916 56.077C119.532 56.253 119.124 56.525 118.692 56.893C118.772 57.149 118.82 57.429 118.836 57.733C118.868 58.037 118.884 58.357 118.884 58.693V64.909C118.9 65.533 119.188 65.925 119.748 66.085L119.964 66.157V66.397H114.396V66.157L114.732 66.061C115.036 65.965 115.244 65.829 115.356 65.653C115.484 65.461 115.548 65.205 115.548 64.885V57.565C115.548 56.925 115.428 56.469 115.188 56.197C114.964 55.925 114.572 55.789 114.012 55.789C113.644 55.789 113.276 55.885 112.908 56.077C112.54 56.253 112.156 56.517 111.756 56.869V64.909C111.756 65.533 112.036 65.925 112.596 66.085L112.812 66.157V66.397H107.172ZM127.727 71.917V71.677L128.015 71.581C128.607 71.421 128.903 71.037 128.903 70.429V57.373C128.903 57.021 128.839 56.757 128.711 56.581C128.599 56.405 128.383 56.285 128.063 56.221L127.727 56.149V55.909L131.807 54.517L132.047 54.757L132.263 55.501C132.791 55.181 133.375 54.933 134.015 54.757C134.671 54.581 135.343 54.493 136.031 54.493C137.407 54.493 138.495 55.021 139.295 56.077C140.111 57.117 140.519 58.613 140.519 60.565C140.519 62.485 140.071 63.997 139.175 65.101C138.295 66.205 137.047 66.757 135.431 66.757C134.167 66.757 133.103 66.573 132.239 66.205V70.357C132.239 70.997 132.527 71.397 133.103 71.557L133.559 71.677V71.917H127.727ZM134.279 66.061C135.079 66.061 135.711 65.645 136.175 64.813C136.655 63.981 136.895 62.597 136.895 60.661C136.895 58.725 136.671 57.373 136.223 56.605C135.775 55.821 135.127 55.429 134.279 55.429C133.687 55.429 133.031 55.621 132.311 56.005V65.677C132.919 65.933 133.575 66.061 134.279 66.061ZM141.602 66.397V66.157L141.962 66.061C142.282 65.965 142.498 65.821 142.61 65.629C142.738 65.437 142.802 65.189 142.802 64.885V57.373C142.802 57.021 142.738 56.765 142.61 56.605C142.498 56.429 142.282 56.309 141.962 56.245L141.602 56.149V55.909L145.73 54.517L145.97 54.757L146.186 56.821V57.013C146.41 56.565 146.698 56.157 147.05 55.789C147.418 55.405 147.818 55.093 148.25 54.853C148.698 54.613 149.138 54.493 149.57 54.493C150.178 54.493 150.642 54.661 150.962 54.997C151.282 55.333 151.442 55.757 151.442 56.269C151.442 56.813 151.282 57.237 150.962 57.541C150.658 57.829 150.29 57.973 149.858 57.973C149.186 57.973 148.594 57.637 148.082 56.965L148.034 56.917C147.874 56.693 147.69 56.573 147.482 56.557C147.274 56.525 147.082 56.621 146.906 56.845C146.746 56.989 146.61 57.165 146.498 57.373C146.402 57.565 146.306 57.789 146.21 58.045V64.741C146.21 65.381 146.49 65.781 147.05 65.941L147.818 66.157V66.397H141.602ZM157.893 66.757C156.677 66.757 155.621 66.509 154.725 66.013C153.829 65.501 153.133 64.781 152.637 63.853C152.157 62.925 151.917 61.837 151.917 60.589C151.917 59.341 152.173 58.261 152.685 57.349C153.213 56.437 153.925 55.733 154.821 55.237C155.733 54.741 156.757 54.493 157.893 54.493C159.029 54.493 160.045 54.741 160.941 55.237C161.837 55.717 162.541 56.413 163.053 57.325C163.581 58.237 163.845 59.325 163.845 60.589C163.845 61.853 163.597 62.949 163.101 63.877C162.621 64.789 161.933 65.501 161.037 66.013C160.157 66.509 159.109 66.757 157.893 66.757ZM157.893 66.277C158.453 66.277 158.901 66.117 159.237 65.797C159.573 65.477 159.813 64.909 159.957 64.093C160.117 63.277 160.197 62.125 160.197 60.637C160.197 59.133 160.117 57.973 159.957 57.157C159.813 56.341 159.573 55.773 159.237 55.453C158.901 55.133 158.453 54.973 157.893 54.973C157.333 54.973 156.877 55.133 156.525 55.453C156.189 55.773 155.941 56.341 155.781 57.157C155.637 57.973 155.565 59.133 155.565 60.637C155.565 62.125 155.637 63.277 155.781 64.093C155.941 64.909 156.189 65.477 156.525 65.797C156.877 66.117 157.333 66.277 157.893 66.277ZM170.134 66.469L165.886 56.269C165.662 55.725 165.278 55.365 164.734 55.189L164.398 55.093V54.853H170.614V55.093L170.182 55.189C169.558 55.349 169.366 55.765 169.606 56.437L172.126 63.133L174.478 56.485C174.606 56.165 174.638 55.901 174.574 55.693C174.51 55.485 174.318 55.333 173.998 55.237L173.398 55.093V54.853H176.878V55.093L176.182 55.261C175.878 55.341 175.638 55.461 175.462 55.621C175.302 55.781 175.166 56.021 175.054 56.341L171.526 66.469H170.134ZM182.876 54.493C183.916 54.493 184.804 54.709 185.54 55.141C186.276 55.557 186.836 56.133 187.22 56.869C187.62 57.589 187.82 58.413 187.82 59.341C187.82 59.517 187.812 59.701 187.796 59.893C187.78 60.069 187.748 60.229 187.7 60.373H180.548C180.564 62.101 180.868 63.349 181.46 64.117C182.068 64.869 182.964 65.245 184.148 65.245C184.948 65.245 185.596 65.117 186.092 64.861C186.588 64.605 187.052 64.229 187.484 63.733L187.724 63.949C187.228 64.829 186.564 65.517 185.732 66.013C184.916 66.509 183.932 66.757 182.78 66.757C181.644 66.757 180.636 66.517 179.756 66.037C178.876 65.541 178.188 64.837 177.692 63.925C177.196 63.013 176.948 61.925 176.948 60.661C176.948 59.349 177.236 58.237 177.812 57.325C178.388 56.397 179.124 55.693 180.02 55.213C180.932 54.733 181.884 54.493 182.876 54.493ZM182.804 54.973C182.34 54.973 181.94 55.117 181.604 55.405C181.284 55.677 181.028 56.173 180.836 56.893C180.66 57.597 180.564 58.597 180.548 59.893H184.652C184.812 58.149 184.748 56.893 184.46 56.125C184.172 55.357 183.62 54.973 182.804 54.973ZM196.451 72.157C195.811 72.157 195.299 71.997 194.915 71.677C194.547 71.357 194.363 70.949 194.363 70.453C194.363 70.005 194.523 69.645 194.843 69.373C195.163 69.101 195.523 68.965 195.923 68.965C196.323 68.965 196.659 69.045 196.931 69.205C197.203 69.381 197.443 69.629 197.651 69.949L197.819 70.141C198.171 70.621 198.523 70.613 198.875 70.117C199.019 69.877 199.179 69.557 199.355 69.157C199.547 68.773 199.763 68.253 200.003 67.597L195.347 56.461C195.235 56.157 195.115 55.917 194.987 55.741C194.859 55.549 194.651 55.389 194.363 55.261L193.931 55.093V54.853H199.907V55.069L199.427 55.261C199.075 55.373 198.891 55.557 198.875 55.813C198.875 56.053 198.939 56.357 199.067 56.725L201.563 63.205L203.939 56.653C204.067 56.285 204.115 55.981 204.083 55.741C204.051 55.485 203.851 55.309 203.483 55.213L202.979 55.093V54.853H206.315V55.093L205.787 55.261C205.419 55.373 205.163 55.533 205.019 55.741C204.875 55.949 204.739 56.237 204.611 56.605L200.747 67.141C200.123 68.821 199.499 70.077 198.875 70.909C198.251 71.741 197.443 72.157 196.451 72.157ZM212.549 66.757C211.333 66.757 210.277 66.509 209.381 66.013C208.485 65.501 207.789 64.781 207.293 63.853C206.813 62.925 206.573 61.837 206.573 60.589C206.573 59.341 206.829 58.261 207.341 57.349C207.869 56.437 208.581 55.733 209.477 55.237C210.389 54.741 211.413 54.493 212.549 54.493C213.685 54.493 214.701 54.741 215.597 55.237C216.493 55.717 217.197 56.413 217.709 57.325C218.237 58.237 218.501 59.325 218.501 60.589C218.501 61.853 218.253 62.949 217.757 63.877C217.277 64.789 216.589 65.501 215.693 66.013C214.813 66.509 213.765 66.757 212.549 66.757ZM212.549 66.277C213.109 66.277 213.557 66.117 213.893 65.797C214.229 65.477 214.469 64.909 214.613 64.093C214.773 63.277 214.853 62.125 214.853 60.637C214.853 59.133 214.773 57.973 214.613 57.157C214.469 56.341 214.229 55.773 213.893 55.453C213.557 55.133 213.109 54.973 212.549 54.973C211.989 54.973 211.533 55.133 211.181 55.453C210.845 55.773 210.597 56.341 210.437 57.157C210.293 57.973 210.221 59.133 210.221 60.637C210.221 62.125 210.293 63.277 210.437 64.093C210.597 64.909 210.845 65.477 211.181 65.797C211.533 66.117 211.989 66.277 212.549 66.277ZM223.805 66.757C223.181 66.757 222.605 66.637 222.077 66.397C221.565 66.157 221.157 65.773 220.853 65.245C220.565 64.701 220.429 63.989 220.445 63.109L220.517 56.941C220.517 56.573 220.453 56.309 220.325 56.149C220.197 55.989 219.997 55.877 219.725 55.813L219.437 55.717V55.477L223.733 54.637L223.973 54.877L223.853 58.285V64.069C223.853 64.581 223.997 64.957 224.285 65.197C224.589 65.437 224.965 65.557 225.413 65.557C225.861 65.557 226.261 65.493 226.613 65.365C226.965 65.237 227.317 65.045 227.669 64.789L227.765 56.965C227.765 56.597 227.709 56.341 227.597 56.197C227.485 56.037 227.277 55.925 226.973 55.861L226.733 55.789V55.549L230.933 54.637L231.173 54.877L231.101 58.285V64.789C231.101 65.141 231.149 65.413 231.245 65.605C231.341 65.797 231.549 65.957 231.869 66.085L232.109 66.157V66.397L227.909 66.637L227.693 65.221C227.165 65.653 226.589 66.021 225.965 66.325C225.357 66.613 224.637 66.757 223.805 66.757ZM233.079 66.397V66.157L233.439 66.061C233.759 65.965 233.975 65.821 234.087 65.629C234.215 65.437 234.279 65.189 234.279 64.885V57.373C234.279 57.021 234.215 56.765 234.087 56.605C233.975 56.429 233.759 56.309 233.439 56.245L233.079 56.149V55.909L237.207 54.517L237.447 54.757L237.663 56.821V57.013C237.887 56.565 238.175 56.157 238.527 55.789C238.895 55.405 239.295 55.093 239.727 54.853C240.175 54.613 240.615 54.493 241.047 54.493C241.655 54.493 242.119 54.661 242.439 54.997C242.759 55.333 242.919 55.757 242.919 56.269C242.919 56.813 242.759 57.237 242.439 57.541C242.135 57.829 241.767 57.973 241.335 57.973C240.663 57.973 240.071 57.637 239.559 56.965L239.511 56.917C239.351 56.693 239.167 56.573 238.959 56.557C238.751 56.525 238.559 56.621 238.383 56.845C238.223 56.989 238.087 57.165 237.975 57.373C237.879 57.565 237.783 57.789 237.687 58.045V64.741C237.687 65.381 237.967 65.781 238.527 65.941L239.295 66.157V66.397H233.079ZM99.9536 95.397V95.157L100.314 95.061C100.634 94.965 100.85 94.821 100.962 94.629C101.09 94.437 101.154 94.189 101.154 93.885V86.373C101.154 86.021 101.09 85.765 100.962 85.605C100.85 85.429 100.634 85.309 100.314 85.245L99.9536 85.149V84.909L104.082 83.517L104.322 83.757L104.538 85.821V86.013C104.762 85.565 105.05 85.157 105.402 84.789C105.77 84.405 106.17 84.093 106.602 83.853C107.05 83.613 107.49 83.493 107.922 83.493C108.53 83.493 108.994 83.661 109.314 83.997C109.634 84.333 109.794 84.757 109.794 85.269C109.794 85.813 109.634 86.237 109.314 86.541C109.01 86.829 108.642 86.973 108.21 86.973C107.538 86.973 106.946 86.637 106.434 85.965L106.386 85.917C106.226 85.693 106.042 85.573 105.834 85.557C105.626 85.525 105.434 85.621 105.258 85.845C105.098 85.989 104.962 86.165 104.85 86.373C104.754 86.565 104.658 86.789 104.562 87.045V93.741C104.562 94.381 104.842 94.781 105.402 94.941L106.17 95.157V95.397H99.9536ZM116.196 83.493C117.236 83.493 118.124 83.709 118.86 84.141C119.596 84.557 120.156 85.133 120.54 85.869C120.94 86.589 121.14 87.413 121.14 88.341C121.14 88.517 121.132 88.701 121.116 88.893C121.1 89.069 121.068 89.229 121.02 89.373H113.868C113.884 91.101 114.188 92.349 114.78 93.117C115.388 93.869 116.284 94.245 117.468 94.245C118.268 94.245 118.916 94.117 119.412 93.861C119.908 93.605 120.372 93.229 120.804 92.733L121.044 92.949C120.548 93.829 119.884 94.517 119.052 95.013C118.236 95.509 117.252 95.757 116.1 95.757C114.964 95.757 113.956 95.517 113.076 95.037C112.196 94.541 111.508 93.837 111.012 92.925C110.516 92.013 110.268 90.925 110.268 89.661C110.268 88.349 110.556 87.237 111.132 86.325C111.708 85.397 112.444 84.693 113.34 84.213C114.252 83.733 115.204 83.493 116.196 83.493ZM116.124 83.973C115.66 83.973 115.26 84.117 114.924 84.405C114.604 84.677 114.348 85.173 114.156 85.893C113.98 86.597 113.884 87.597 113.868 88.893H117.972C118.132 87.149 118.068 85.893 117.78 85.125C117.492 84.357 116.94 83.973 116.124 83.973ZM126.488 95.757C125.704 95.757 125 95.661 124.376 95.469C123.752 95.293 123.176 95.069 122.648 94.797L122.672 91.941H122.912L123.728 93.381C124.08 94.021 124.464 94.501 124.88 94.821C125.312 95.125 125.856 95.277 126.512 95.277C127.28 95.277 127.896 95.109 128.36 94.773C128.84 94.421 129.08 93.957 129.08 93.381C129.08 92.853 128.912 92.421 128.576 92.085C128.24 91.749 127.616 91.445 126.704 91.173L125.696 90.861C124.72 90.573 123.952 90.125 123.392 89.517C122.832 88.909 122.552 88.165 122.552 87.285C122.552 86.229 122.968 85.333 123.8 84.597C124.632 83.861 125.824 83.493 127.376 83.493C128 83.493 128.584 83.565 129.128 83.709C129.688 83.837 130.224 84.037 130.736 84.309L130.592 86.901H130.352L129.512 85.413C129.208 84.885 128.904 84.517 128.6 84.309C128.312 84.085 127.872 83.973 127.28 83.973C126.736 83.973 126.224 84.125 125.744 84.429C125.264 84.733 125.024 85.165 125.024 85.725C125.024 86.269 125.224 86.701 125.624 87.021C126.04 87.341 126.648 87.637 127.448 87.909L128.528 88.221C129.68 88.573 130.504 89.061 131 89.685C131.496 90.293 131.744 91.029 131.744 91.893C131.744 93.061 131.28 93.997 130.352 94.701C129.44 95.405 128.152 95.757 126.488 95.757ZM136.993 95.757C136.369 95.757 135.793 95.637 135.265 95.397C134.753 95.157 134.345 94.773 134.041 94.245C133.753 93.701 133.617 92.989 133.633 92.109L133.705 85.941C133.705 85.573 133.641 85.309 133.513 85.149C133.385 84.989 133.185 84.877 132.913 84.813L132.625 84.717V84.477L136.921 83.637L137.161 83.877L137.041 87.285V93.069C137.041 93.581 137.185 93.957 137.473 94.197C137.777 94.437 138.153 94.557 138.601 94.557C139.049 94.557 139.449 94.493 139.801 94.365C140.153 94.237 140.505 94.045 140.857 93.789L140.953 85.965C140.953 85.597 140.897 85.341 140.785 85.197C140.673 85.037 140.465 84.925 140.161 84.861L139.921 84.789V84.549L144.121 83.637L144.361 83.877L144.289 87.285V93.789C144.289 94.141 144.337 94.413 144.433 94.605C144.529 94.797 144.737 94.957 145.057 95.085L145.297 95.157V95.397L141.097 95.637L140.881 94.221C140.353 94.653 139.777 95.021 139.153 95.325C138.545 95.613 137.825 95.757 136.993 95.757ZM146.266 95.397V95.157L146.602 95.061C146.906 94.981 147.114 94.845 147.226 94.653C147.354 94.461 147.426 94.205 147.442 93.885V86.373C147.442 86.021 147.386 85.765 147.274 85.605C147.162 85.429 146.946 85.309 146.626 85.245L146.266 85.149V84.909L150.37 83.517L150.61 83.757L150.802 85.389C151.33 84.861 151.93 84.413 152.602 84.045C153.29 83.677 154.002 83.493 154.738 83.493C155.506 83.493 156.122 83.653 156.586 83.973C157.05 84.277 157.402 84.757 157.642 85.413C158.266 84.821 158.938 84.357 159.658 84.021C160.394 83.669 161.106 83.493 161.794 83.493C162.93 83.493 163.762 83.765 164.29 84.309C164.834 84.853 165.106 85.709 165.106 86.877V93.909C165.106 94.533 165.394 94.925 165.97 95.085L166.234 95.157V95.397H160.69V95.157L160.93 95.085C161.234 94.989 161.442 94.845 161.554 94.653C161.682 94.461 161.746 94.205 161.746 93.885V86.541C161.746 85.869 161.626 85.413 161.386 85.173C161.146 84.917 160.762 84.789 160.234 84.789C159.818 84.789 159.41 84.885 159.01 85.077C158.626 85.253 158.218 85.525 157.786 85.893C157.866 86.149 157.914 86.429 157.93 86.733C157.962 87.037 157.978 87.357 157.978 87.693V93.909C157.994 94.533 158.282 94.925 158.842 95.085L159.058 95.157V95.397H153.49V95.157L153.826 95.061C154.13 94.965 154.338 94.829 154.45 94.653C154.578 94.461 154.642 94.205 154.642 93.885V86.565C154.642 85.925 154.522 85.469 154.282 85.197C154.058 84.925 153.666 84.789 153.106 84.789C152.738 84.789 152.37 84.885 152.002 85.077C151.634 85.253 151.25 85.517 150.85 85.869V93.909C150.85 94.533 151.13 94.925 151.69 95.085L151.906 95.157V95.397H146.266ZM173.196 83.493C174.236 83.493 175.124 83.709 175.86 84.141C176.596 84.557 177.156 85.133 177.54 85.869C177.94 86.589 178.14 87.413 178.14 88.341C178.14 88.517 178.132 88.701 178.116 88.893C178.1 89.069 178.068 89.229 178.02 89.373H170.868C170.884 91.101 171.188 92.349 171.78 93.117C172.388 93.869 173.284 94.245 174.468 94.245C175.268 94.245 175.916 94.117 176.412 93.861C176.908 93.605 177.372 93.229 177.804 92.733L178.044 92.949C177.548 93.829 176.884 94.517 176.052 95.013C175.236 95.509 174.252 95.757 173.1 95.757C171.964 95.757 170.956 95.517 170.076 95.037C169.196 94.541 168.508 93.837 168.012 92.925C167.516 92.013 167.268 90.925 167.268 89.661C167.268 88.349 167.556 87.237 168.132 86.325C168.708 85.397 169.444 84.693 170.34 84.213C171.252 83.733 172.204 83.493 173.196 83.493ZM173.124 83.973C172.66 83.973 172.26 84.117 171.924 84.405C171.604 84.677 171.348 85.173 171.156 85.893C170.98 86.597 170.884 87.597 170.868 88.893H174.972C175.132 87.149 175.068 85.893 174.78 85.125C174.492 84.357 173.94 83.973 173.124 83.973ZM189.483 95.469L185.787 85.317C185.611 84.805 185.259 84.445 184.731 84.237L184.323 84.093V83.853H190.203V84.093L189.843 84.189C189.219 84.381 189.011 84.765 189.219 85.341L191.451 92.133L193.443 86.853L192.987 85.485C192.875 85.133 192.755 84.869 192.627 84.693C192.515 84.501 192.363 84.365 192.171 84.285L191.763 84.093V83.853H196.731V84.093L196.395 84.237C196.155 84.333 196.011 84.461 195.963 84.621C195.915 84.781 195.947 85.021 196.059 85.341L198.267 92.013L200.547 85.389C200.771 84.781 200.651 84.397 200.187 84.237L199.659 84.093V83.853H202.539V84.093L201.963 84.261C201.691 84.341 201.491 84.469 201.363 84.645C201.251 84.805 201.147 85.029 201.051 85.317L197.595 95.469H196.371L193.707 87.621L190.875 95.469H189.483ZM206.193 82.245C205.649 82.245 205.185 82.077 204.801 81.741C204.433 81.389 204.249 80.949 204.249 80.421C204.249 79.877 204.433 79.437 204.801 79.101C205.185 78.765 205.649 78.597 206.193 78.597C206.737 78.597 207.193 78.765 207.561 79.101C207.929 79.437 208.113 79.877 208.113 80.421C208.113 80.949 207.929 81.389 207.561 81.741C207.193 82.077 206.737 82.245 206.193 82.245ZM203.361 95.397V95.157L203.697 95.061C204.017 94.965 204.233 94.821 204.345 94.629C204.473 94.437 204.537 94.181 204.537 93.861V86.349C204.537 86.013 204.473 85.765 204.345 85.605C204.233 85.429 204.017 85.309 203.697 85.245L203.361 85.173V84.933L207.753 83.517L207.993 83.757L207.921 87.165V93.885C207.921 94.205 207.977 94.461 208.089 94.653C208.217 94.845 208.433 94.989 208.737 95.085L208.977 95.157V95.397H203.361ZM214.6 95.757C213.576 95.757 212.776 95.501 212.2 94.989C211.64 94.477 211.36 93.661 211.36 92.541V84.333H209.704V84.093L210.28 83.997C210.776 83.885 211.2 83.725 211.552 83.517C211.92 83.309 212.28 83.029 212.632 82.677L214.6 80.493H214.84L214.768 83.853H217.456V84.333H214.744V92.973C214.744 93.533 214.864 93.957 215.104 94.245C215.36 94.533 215.68 94.677 216.064 94.677C216.4 94.677 216.696 94.597 216.952 94.437C217.208 94.261 217.464 94.029 217.72 93.741L217.96 93.981C217.64 94.525 217.2 94.957 216.64 95.277C216.08 95.597 215.4 95.757 214.6 95.757ZM218.783 95.397V95.157L219.071 95.061C219.647 94.869 219.935 94.469 219.935 93.861V81.045C219.935 80.709 219.879 80.461 219.767 80.301C219.655 80.141 219.439 80.021 219.119 79.941L218.759 79.845V79.605L222.983 78.573L223.367 78.789L223.271 82.173V85.173C223.831 84.709 224.431 84.317 225.071 83.997C225.727 83.661 226.447 83.493 227.231 83.493C228.271 83.493 229.095 83.789 229.703 84.381C230.327 84.973 230.639 85.885 230.639 87.117V93.885C230.639 94.205 230.703 94.461 230.831 94.653C230.959 94.845 231.183 94.989 231.503 95.085L231.695 95.157V95.397H226.079V95.157L226.367 95.085C226.943 94.893 227.231 94.485 227.231 93.861V86.325C227.231 85.685 227.119 85.245 226.895 85.005C226.687 84.765 226.311 84.645 225.767 84.645C225.415 84.645 225.031 84.717 224.615 84.861C224.199 84.989 223.775 85.221 223.343 85.557V93.909C223.343 94.533 223.631 94.933 224.207 95.109L224.399 95.157V95.397H218.783ZM99.6656 124.397V124.157L100.266 123.941C100.586 123.813 100.834 123.661 101.01 123.485C101.186 123.293 101.33 123.029 101.442 122.693L106.386 108.509H108.426L113.298 122.789C113.426 123.141 113.57 123.413 113.73 123.605C113.89 123.781 114.138 123.933 114.474 124.061L114.762 124.157V124.397H108.666V124.157L109.026 124.037C109.362 123.909 109.562 123.733 109.626 123.509C109.706 123.269 109.698 122.989 109.602 122.669L108.474 119.213H103.146L101.994 122.597C101.882 122.949 101.842 123.229 101.874 123.437C101.922 123.645 102.114 123.813 102.45 123.941L102.978 124.157V124.397H99.6656ZM103.314 118.733H108.33L105.906 111.269L103.314 118.733ZM115.517 124.397V124.157L115.997 123.965C116.317 123.853 116.525 123.701 116.621 123.509C116.733 123.317 116.789 123.061 116.789 122.741V110.213C116.789 109.893 116.741 109.637 116.645 109.445C116.549 109.253 116.333 109.101 115.997 108.989L115.517 108.797V108.557H121.685V108.797L121.205 108.989C120.885 109.101 120.669 109.253 120.557 109.445C120.461 109.637 120.413 109.893 120.413 110.213V122.741C120.413 123.061 120.461 123.317 120.557 123.509C120.669 123.685 120.885 123.837 121.205 123.965L121.685 124.157V124.397H115.517ZM127.963 124.397V124.157L128.275 124.085C128.579 124.005 128.819 123.869 128.995 123.677C129.171 123.469 129.259 123.205 129.259 122.885C129.259 122.293 129.259 121.709 129.259 121.133C129.275 120.541 129.283 119.949 129.283 119.357V113.333H127.939V113.069L128.467 112.973C128.787 112.941 129.019 112.829 129.163 112.637C129.307 112.445 129.411 112.181 129.475 111.845C129.635 111.221 129.867 110.677 130.171 110.213C130.491 109.733 130.851 109.293 131.251 108.893C131.859 108.317 132.499 107.917 133.171 107.693C133.859 107.453 134.531 107.333 135.187 107.333C135.827 107.333 136.411 107.469 136.939 107.741C137.467 107.997 137.731 108.429 137.731 109.037C137.731 109.469 137.603 109.813 137.347 110.069C137.091 110.309 136.731 110.429 136.267 110.429C135.883 110.429 135.531 110.325 135.211 110.117C134.891 109.909 134.579 109.541 134.275 109.013L133.939 108.605C133.763 108.381 133.587 108.277 133.411 108.293C133.235 108.293 133.107 108.421 133.027 108.677C132.915 109.237 132.827 109.893 132.763 110.645C132.715 111.397 132.691 112.133 132.691 112.853H135.379V113.333H132.691V122.837C132.691 123.445 133.011 123.837 133.651 124.013L134.251 124.157V124.397H127.963ZM141.884 112.493C142.924 112.493 143.812 112.709 144.548 113.141C145.284 113.557 145.844 114.133 146.228 114.869C146.628 115.589 146.828 116.413 146.828 117.341C146.828 117.517 146.82 117.701 146.804 117.893C146.788 118.069 146.756 118.229 146.708 118.373H139.556C139.572 120.101 139.876 121.349 140.468 122.117C141.076 122.869 141.972 123.245 143.156 123.245C143.956 123.245 144.604 123.117 145.1 122.861C145.596 122.605 146.06 122.229 146.492 121.733L146.732 121.949C146.236 122.829 145.572 123.517 144.74 124.013C143.924 124.509 142.94 124.757 141.788 124.757C140.652 124.757 139.644 124.517 138.764 124.037C137.884 123.541 137.196 122.837 136.7 121.925C136.204 121.013 135.956 119.925 135.956 118.661C135.956 117.349 136.244 116.237 136.82 115.325C137.396 114.397 138.132 113.693 139.028 113.213C139.94 112.733 140.892 112.493 141.884 112.493ZM141.812 112.973C141.348 112.973 140.948 113.117 140.612 113.405C140.292 113.677 140.036 114.173 139.844 114.893C139.668 115.597 139.572 116.597 139.556 117.893H143.66C143.82 116.149 143.756 114.893 143.468 114.125C143.18 113.357 142.628 112.973 141.812 112.973ZM154.048 112.493C155.088 112.493 155.976 112.709 156.712 113.141C157.448 113.557 158.008 114.133 158.392 114.869C158.792 115.589 158.992 116.413 158.992 117.341C158.992 117.517 158.984 117.701 158.968 117.893C158.952 118.069 158.92 118.229 158.872 118.373H151.72C151.736 120.101 152.04 121.349 152.632 122.117C153.24 122.869 154.136 123.245 155.32 123.245C156.12 123.245 156.768 123.117 157.264 122.861C157.76 122.605 158.224 122.229 158.656 121.733L158.896 121.949C158.4 122.829 157.736 123.517 156.904 124.013C156.088 124.509 155.104 124.757 153.952 124.757C152.816 124.757 151.808 124.517 150.928 124.037C150.048 123.541 149.36 122.837 148.864 121.925C148.368 121.013 148.12 119.925 148.12 118.661C148.12 117.349 148.408 116.237 148.984 115.325C149.56 114.397 150.296 113.693 151.192 113.213C152.104 112.733 153.056 112.493 154.048 112.493ZM153.976 112.973C153.512 112.973 153.112 113.117 152.776 113.405C152.456 113.677 152.2 114.173 152.008 114.893C151.832 115.597 151.736 116.597 151.72 117.893H155.824C155.984 116.149 155.92 114.893 155.632 114.125C155.344 113.357 154.792 112.973 153.976 112.973ZM165.276 124.757C164.332 124.757 163.484 124.549 162.732 124.133C161.98 123.701 161.38 123.045 160.932 122.165C160.5 121.269 160.284 120.125 160.284 118.733C160.284 117.325 160.532 116.165 161.028 115.253C161.524 114.325 162.18 113.637 162.996 113.189C163.812 112.725 164.7 112.493 165.66 112.493C166.22 112.493 166.756 112.549 167.268 112.661C167.78 112.773 168.236 112.941 168.636 113.165V110.045C168.636 109.709 168.58 109.461 168.468 109.301C168.372 109.141 168.156 109.029 167.82 108.965L167.364 108.869V108.629L171.732 107.573L171.996 107.789L171.9 111.149V122.885C171.9 123.205 171.956 123.469 172.068 123.677C172.18 123.869 172.388 124.005 172.692 124.085L172.908 124.157V124.397L168.804 124.661L168.588 123.797C168.156 124.085 167.66 124.317 167.1 124.493C166.556 124.669 165.948 124.757 165.276 124.757ZM166.668 123.869C167.34 123.869 167.956 123.669 168.516 123.269V113.741C167.924 113.357 167.316 113.165 166.692 113.165C165.924 113.165 165.268 113.613 164.724 114.509C164.18 115.389 163.908 116.781 163.908 118.685C163.908 120.589 164.164 121.933 164.676 122.717C165.188 123.485 165.852 123.869 166.668 123.869ZM178.073 124.709L174.017 124.397V124.157L174.257 124.109C174.881 123.965 175.193 123.565 175.193 122.909V110.069C175.193 109.733 175.137 109.477 175.025 109.301C174.929 109.125 174.721 109.005 174.401 108.941L174.065 108.845V108.605L178.337 107.573L178.625 107.789L178.529 111.173V113.597C179.057 113.229 179.633 112.957 180.257 112.781C180.881 112.589 181.513 112.493 182.153 112.493C183.065 112.493 183.873 112.709 184.577 113.141C185.281 113.557 185.833 114.213 186.233 115.109C186.649 115.989 186.857 117.125 186.857 118.517C186.857 119.909 186.625 121.069 186.161 121.997C185.713 122.909 185.105 123.597 184.337 124.061C183.585 124.525 182.753 124.757 181.841 124.757C181.249 124.757 180.649 124.677 180.041 124.517C179.449 124.357 178.921 124.133 178.457 123.845L178.073 124.709ZM180.641 123.941C181.153 123.941 181.601 123.781 181.985 123.461C182.369 123.141 182.673 122.597 182.897 121.829C183.121 121.045 183.233 119.973 183.233 118.613C183.233 117.253 183.129 116.205 182.921 115.469C182.713 114.733 182.417 114.221 182.033 113.933C181.665 113.645 181.217 113.501 180.689 113.501C179.937 113.501 179.241 113.709 178.601 114.125V123.341C178.905 123.533 179.217 123.685 179.537 123.797C179.857 123.893 180.225 123.941 180.641 123.941ZM191.278 124.757C190.35 124.757 189.566 124.493 188.926 123.965C188.302 123.437 187.99 122.677 187.99 121.685C187.99 120.933 188.374 120.245 189.142 119.621C189.91 118.981 191.118 118.501 192.766 118.181C193.022 118.133 193.31 118.085 193.63 118.037C193.95 117.973 194.286 117.909 194.638 117.845V115.949C194.638 114.861 194.502 114.101 194.23 113.669C193.974 113.221 193.566 112.997 193.006 112.997C192.622 112.997 192.318 113.125 192.094 113.381C191.87 113.621 191.726 114.045 191.662 114.653L191.614 114.917C191.582 115.605 191.414 116.109 191.11 116.429C190.806 116.749 190.43 116.909 189.982 116.909C189.566 116.909 189.222 116.781 188.95 116.525C188.678 116.269 188.542 115.925 188.542 115.493C188.542 114.837 188.766 114.285 189.214 113.837C189.678 113.389 190.286 113.053 191.038 112.829C191.79 112.605 192.606 112.493 193.486 112.493C194.91 112.493 196.006 112.845 196.774 113.549C197.558 114.237 197.95 115.365 197.95 116.933V122.237C197.95 122.957 198.286 123.317 198.958 123.317H199.486L199.702 123.509C199.398 123.893 199.062 124.189 198.694 124.397C198.342 124.605 197.838 124.709 197.182 124.709C196.478 124.709 195.918 124.549 195.502 124.229C195.102 123.893 194.838 123.453 194.71 122.909C194.23 123.421 193.734 123.861 193.222 124.229C192.726 124.581 192.078 124.757 191.278 124.757ZM192.742 123.293C193.062 123.293 193.358 123.221 193.63 123.077C193.918 122.917 194.254 122.677 194.638 122.357V118.325C194.478 118.357 194.318 118.389 194.158 118.421C193.998 118.453 193.814 118.485 193.606 118.517C192.87 118.709 192.278 119.037 191.83 119.501C191.398 119.949 191.182 120.557 191.182 121.325C191.182 121.981 191.334 122.477 191.638 122.813C191.942 123.133 192.31 123.293 192.742 123.293ZM206.148 124.757C205.06 124.757 204.068 124.525 203.172 124.061C202.292 123.581 201.588 122.893 201.06 121.997C200.548 121.085 200.292 119.973 200.292 118.661C200.292 117.365 200.572 116.261 201.132 115.349C201.708 114.421 202.468 113.717 203.412 113.237C204.372 112.741 205.42 112.493 206.556 112.493C207.484 112.493 208.268 112.645 208.908 112.949C209.548 113.253 210.036 113.653 210.372 114.149C210.708 114.629 210.876 115.133 210.876 115.661C210.876 116.109 210.74 116.461 210.468 116.717C210.196 116.957 209.844 117.077 209.412 117.077C208.948 117.077 208.572 116.909 208.284 116.573C207.996 116.237 207.828 115.797 207.78 115.253C207.764 114.901 207.772 114.605 207.804 114.365C207.836 114.109 207.836 113.853 207.804 113.597C207.74 113.325 207.636 113.149 207.492 113.069C207.364 112.973 207.18 112.925 206.94 112.925C205.964 112.925 205.204 113.349 204.66 114.197C204.132 115.045 203.868 116.397 203.868 118.253C203.868 119.869 204.164 121.109 204.756 121.973C205.364 122.821 206.292 123.245 207.54 123.245C208.292 123.245 208.9 123.109 209.364 122.837C209.828 122.565 210.276 122.157 210.708 121.613L210.948 121.805C210.548 122.749 209.932 123.477 209.1 123.989C208.268 124.501 207.284 124.757 206.148 124.757ZM211.588 124.397V124.157L211.948 124.037C212.492 123.861 212.764 123.469 212.764 122.861V110.021C212.764 109.701 212.7 109.461 212.572 109.301C212.444 109.141 212.22 109.013 211.9 108.917L211.588 108.845V108.605L215.98 107.573L216.268 107.789L216.196 111.149V122.861C216.196 123.501 216.46 123.901 216.988 124.061L217.324 124.157V124.397H211.588ZM220.492 124.397L216.22 118.397L220.66 114.293C220.868 114.101 220.988 113.901 221.02 113.693C221.068 113.469 220.932 113.309 220.612 113.213L220.204 113.093V112.853H223.78V113.093L223.06 113.285C222.708 113.397 222.42 113.533 222.196 113.693C221.988 113.837 221.732 114.045 221.428 114.317L218.74 116.837L223.036 122.813C223.292 123.165 223.532 123.437 223.756 123.629C223.98 123.821 224.268 123.981 224.62 124.109L224.716 124.157V124.397H220.492ZM228.488 124.757C227.912 124.757 227.424 124.557 227.024 124.157C226.624 123.757 226.424 123.277 226.424 122.717C226.424 122.157 226.624 121.669 227.024 121.253C227.424 120.837 227.912 120.629 228.488 120.629C229.064 120.629 229.552 120.837 229.952 121.253C230.352 121.669 230.552 122.157 230.552 122.717C230.552 123.277 230.352 123.757 229.952 124.157C229.552 124.557 229.064 124.757 228.488 124.757Z" fill="#333533"/>
<path d="M248 35.9298C248.242 35.8222 248.261 35.5812 248.331 35.3312C248.827 33.5836 249.225 31.8065 249.689 30.0504C249.95 29.0623 250.301 28.0793 250.501 27.0786" stroke="#333533" stroke-width="4" stroke-linecap="round"/>
<path d="M252.811 38.2389C256.774 34.7163 259.789 29.9347 262.88 25.6676C263.286 25.1079 263.791 24.5579 264.163 24" stroke="#333533" stroke-width="4" stroke-linecap="round"/>
<path d="M257.429 42.6646C259.895 41.8828 262.203 40.5922 264.441 39.308C265.212 38.866 265.996 38.4543 266.857 38.239" stroke="#333533" stroke-width="4" stroke-linecap="round"/>
<path d="M77 133.853C79.7725 133.018 82.5412 132.172 85.3075 131.317C85.6173 131.221 85.8932 131.173 86.1527 131" stroke="#333533" stroke-width="4" stroke-linecap="round"/>
<path d="M77.1191 147.285C77.9582 146.781 78.729 145.718 79.3512 145.039C81.1239 143.104 82.8773 141.156 84.7134 139.281C85.7694 138.202 86.7993 137.106 87.936 136.111" stroke="#333533" stroke-width="4" stroke-linecap="round"/>
<path d="M89.041 146.445C89.6719 144.623 90.5157 142.849 91.3801 141.128C91.7142 140.462 92.0506 139.782 92.4646 139.161" stroke="#333533" stroke-width="4" stroke-linecap="round"/>
</svg>
