<svg width="60" height="76" viewBox="0 0 60 76" fill="none" xmlns="http://www.w3.org/2000/svg">
<path d="M5.01465 4.92505V66.8118C5.01465 69.021 6.80551 70.8118 9.01465 70.8118H54.7146" stroke="#8E8E8E" stroke-width="4"/>
<path d="M58 27.6271L32.4348 2M58 27.6271V63C58 69.0751 53.0751 74 47 74H13C6.92487 74 2 69.0751 2 63V13C2 6.92487 6.92488 2 13 2H32.4348M58 27.6271H43.4348C37.3596 27.6271 32.4348 22.7022 32.4348 16.6271V2" stroke="#333533" stroke-width="4"/>
<path d="M29.9996 56.3395V39.3584M29.9996 39.3584L25.0996 43.0942M29.9996 39.3584L34.8996 43.0942" stroke="#333533" stroke-width="3" stroke-linecap="round"/>
</svg>
